<svg class="svg-icon" style="width: 1em; height: 1em;vertical-align: middle;fill: currentColor;overflow: hidden;" viewBox="0 0 1024 1024" version="1.1" xmlns="http://www.w3.org/2000/svg"><path d="M753.664 251.904c-10.24-104.96-99.328-185.856-205.824-185.856-111.616 0-203.264 88.576-207.36 198.656-23.552-9.728-48.64-14.848-74.24-14.848-109.056 0-197.632 88.576-197.632 197.632 0 95.232 66.56 174.08 156.16 192.512 2.56 0.512 4.608 1.024 7.168 1.536l9.216 1.536 13.824 1.536h2.048c1.024 0.512 1.536 0.512 2.56 0.512h485.376c112.128-2.048 203.264-90.112 203.264-196.608 0.512-103.936-86.016-190.976-194.56-196.608z m-9.728 376.32H267.264c-3.072 0-6.144-0.512-9.216-0.512-4.608 0-8.704-0.512-12.8-1.024-3.072-0.512-6.656-1.024-9.728-1.536-2.048-0.512-3.584-0.512-5.632-1.024-81.408-17.408-142.336-89.6-142.336-176.128 0-99.328 80.896-179.712 179.712-179.712 55.296 0 107.008 25.088 141.312 68.608 3.072 3.584 8.192 4.096 11.776 1.536 3.584-3.072 4.096-8.192 1.536-11.776-17.92-22.528-39.936-40.448-65.024-53.248v-1.536c0-104.448 85.504-189.44 190.464-189.44 100.352 0 183.808 77.824 189.952 177.664 0.512 4.096 3.584 7.68 8.192 7.68 102.912 2.048 186.368 82.944 186.368 180.224 0.512 98.304-83.968 179.2-187.904 180.224z" fill="#222222" /><path d="M349.696 713.216m-31.232 0a31.232 31.232 0 1 0 62.464 0 31.232 31.232 0 1 0-62.464 0Z" fill="#222222" /><path d="M500.736 906.752m-25.6 0a25.6 25.6 0 1 0 51.2 0 25.6 25.6 0 1 0-51.2 0Z" fill="#222222" /><path d="M554.496 744.448m-16.896 0a16.896 16.896 0 1 0 33.792 0 16.896 16.896 0 1 0-33.792 0Z" fill="#222222" /><path d="M374.272 883.2m-16.896 0a16.896 16.896 0 1 0 33.792 0 16.896 16.896 0 1 0-33.792 0Z" fill="#222222" /><path d="M742.912 806.4m-27.648 0a27.648 27.648 0 1 0 55.296 0 27.648 27.648 0 1 0-55.296 0Z" fill="#222222" /><path d="M248.32 779.264m-20.48 0a20.48 20.48 0 1 0 40.96 0 20.48 20.48 0 1 0-40.96 0Z" fill="#222222" /><path d="M636.416 797.184H337.408c-6.656 0-11.776-5.12-11.776-11.776s5.12-11.776 11.776-11.776h299.008c23.552 0 42.496-18.944 42.496-42.496s-18.944-42.496-42.496-42.496c-6.656 0-11.776-5.12-11.776-11.776s5.12-11.776 11.776-11.776c36.352 0 65.536 29.184 65.536 65.536s-29.184 66.56-65.536 66.56zM624.128 954.88c-6.656 0-11.776-5.12-11.776-11.776s5.12-11.776 11.776-11.776c23.552 0 42.496-18.944 42.496-42.496 0-23.552-18.944-42.496-42.496-42.496H277.504c-6.656 0-11.776-5.12-11.776-11.776s5.12-11.776 11.776-11.776H624.64c36.352 0 65.536 29.184 65.536 65.536-0.512 36.864-29.696 66.56-66.048 66.56z" fill="#222222" /></svg>